<?xml version="1.0" standalone="no"?>
<!DOCTYPE svg PUBLIC "-//W3C//DTD SVG 20010904//EN"
 "http://www.w3.org/TR/2001/REC-SVG-20010904/DTD/svg10.dtd">
<svg version="1.0" xmlns="http://www.w3.org/2000/svg"
 width="512.000000pt" height="512.000000pt" viewBox="0 0 512.000000 512.000000"
 preserveAspectRatio="xMidYMid meet">
<metadata>
Created by potrace 1.16, written by Peter Selinger 2001-2019
</metadata>
<g transform="translate(0.000000,512.000000) scale(0.100000,-0.100000)"
fill="#000000" stroke="none">
<path d="M2507 4996 c-21 -8 -48 -22 -59 -33 -16 -14 -316 -610 -630 -1250
-22 -45 -55 -99 -74 -121 -41 -48 -118 -99 -177 -117 -23 -7 -360 -59 -747
-115 -480 -69 -716 -107 -740 -119 -54 -27 -80 -73 -80 -141 0 -71 18 -97 156
-230 55 -52 284 -276 510 -497 470 -460 475 -466 482 -608 3 -68 -14 -184
-117 -788 -134 -782 -132 -753 -68 -815 39 -38 88 -54 137 -46 19 4 326 159
682 346 557 293 656 341 712 351 134 23 127 25 844 -351 356 -187 663 -342
682 -346 49 -8 98 8 137 46 64 62 66 33 -68 815 -103 604 -120 720 -117 788 7
142 12 148 482 608 226 221 455 445 510 497 138 133 156 159 156 229 0 67 -30
119 -82 144 -19 8 -336 59 -733 117 -385 55 -719 106 -743 112 -56 14 -150 75
-190 123 -17 21 -51 79 -76 129 -284 580 -592 1196 -608 1219 -38 53 -117 76
-181 53z"/>
</g>
</svg>
