<?xml version="1.0" standalone="no"?>
<!DOCTYPE svg PUBLIC "-//W3C//DTD SVG 20010904//EN"
 "http://www.w3.org/TR/2001/REC-SVG-20010904/DTD/svg10.dtd">
<svg version="1.0" xmlns="http://www.w3.org/2000/svg"
 width="512.000000pt" height="512.000000pt" viewBox="0 0 512.000000 512.000000"
 preserveAspectRatio="xMidYMid meet">
<metadata>
Created by potrace 1.16, written by Peter Selinger 2001-2019
</metadata>
<g transform="translate(0.000000,512.000000) scale(0.100000,-0.100000)"
fill="#000000" stroke="none">
<path d="M2840 4699 c-41 -5 -109 -16 -150 -24 -86 -17 -110 -38 -110 -95 0
-22 7 -43 18 -53 9 -8 78 -35 152 -60 253 -83 472 -187 667 -316 353 -235 545
-505 584 -825 28 -226 -42 -496 -202 -779 -169 -297 -506 -510 -870 -548 -287
-30 -581 53 -938 265 -107 63 -159 72 -218 37 -49 -31 -333 -359 -333 -387 0
-62 316 -374 379 -374 8 0 26 11 41 25 l25 24 85 -51 c557 -337 1172 -424
1639 -232 202 83 416 214 588 358 326 274 542 673 593 1096 15 123 12 399 -5
511 -106 707 -460 1167 -1040 1352 -121 39 -225 61 -355 77 -99 12 -442 11
-550 -1z"/>
<path d="M1180 1734 c-39 -16 -821 -790 -846 -836 -19 -37 -18 -127 2 -158 27
-41 287 -300 316 -316 35 -18 121 -18 156 0 15 8 208 196 429 418 352 354 403
408 413 446 21 82 5 110 -158 276 -182 184 -225 207 -312 170z"/>
</g>
</svg>
