<?xml version="1.0" standalone="no"?>
<!DOCTYPE svg PUBLIC "-//W3C//DTD SVG 20010904//EN"
 "http://www.w3.org/TR/2001/REC-SVG-20010904/DTD/svg10.dtd">
<svg version="1.0" xmlns="http://www.w3.org/2000/svg"
 width="512.000000pt" height="512.000000pt" viewBox="0 0 512.000000 512.000000"
 preserveAspectRatio="xMidYMid meet">
<metadata>
Created by potrace 1.16, written by Peter Selinger 2001-2019
</metadata>
<g transform="translate(0.000000,512.000000) scale(0.100000,-0.100000)"
fill="#000000" stroke="none">
<path d="M3199 4890 c-230 -22 -485 -103 -682 -216 -61 -35 -1040 -725 -1069
-753 -3 -3 1 -70 9 -148 17 -159 13 -199 -23 -242 -14 -17 -100 -83 -191 -147
-217 -153 -212 -153 -407 -60 l-140 66 -46 -32 c-26 -18 -117 -82 -203 -143
-100 -70 -156 -116 -154 -125 1 -9 150 -224 332 -479 232 -326 334 -461 345
-458 8 2 102 66 209 142 l194 138 -7 71 c-3 39 -9 116 -12 171 -5 89 -3 104
15 132 27 42 361 280 406 289 42 7 77 -4 223 -73 63 -29 121 -52 128 -49 27
11 776 550 781 563 3 8 -10 95 -30 193 -43 217 -42 225 46 318 273 284 720
500 1115 538 85 8 107 27 69 61 -106 95 -334 195 -517 227 -113 19 -285 26
-391 16z"/>
<path d="M1668 4502 c-128 -92 -177 -133 -177 -147 0 -11 22 -51 50 -88 l50
-68 32 23 c149 104 344 242 351 249 12 10 -94 159 -113 158 -9 0 -96 -58 -193
-127z"/>
<path d="M2634 3155 c-104 -75 -189 -141 -188 -148 2 -21 385 -552 397 -551
10 1 347 235 380 264 7 6 -339 506 -382 553 -16 17 -27 11 -207 -118z"/>
<path d="M3121 2475 c-135 -96 -249 -179 -254 -184 -9 -9 514 -811 528 -811
12 0 575 404 573 411 -13 30 -577 758 -588 758 -8 0 -125 -78 -259 -174z"/>
<path d="M3775 1571 c-154 -110 -284 -206 -289 -213 -6 -10 15 -49 69 -131
l78 -116 26 18 c411 291 567 404 569 410 2 6 -164 231 -171 231 -1 0 -128 -90
-282 -199z"/>
<path d="M4017 1209 c-163 -116 -297 -215 -297 -220 0 -16 401 -613 439 -652
20 -21 65 -52 100 -70 56 -27 77 -32 160 -35 80 -3 105 0 154 18 207 78 309
311 228 520 -14 37 -94 150 -246 350 -123 162 -228 296 -233 298 -4 1 -142
-93 -305 -209z"/>
</g>
</svg>
